<svg xmlns="http://www.w3.org/2000/svg" width="100" height="100" viewBox="0 0 100 100">
  <defs>
    <style>
      .cls-1 {
        fill: #8dd4ff;
      }

      .cls-2 {
        fill: none;
      }
    </style>
  </defs>
  <g id="Group_25" data-name="Group 25" transform="translate(-44 -2)">
    <g id="Group_23" data-name="Group 23" transform="translate(8 -14)">
      <g id="Group_11" data-name="Group 11" transform="translate(36 49.441)">
        <path id="Path_10" data-name="Path 10" class="cls-1" d="M35.482,38.869l-1.944-.716c-.673-.41-.778-4.073-.247-4.961a17.343,17.343,0,0,0,4.523-13.313C37.814,12.415,32.939,7,26.226,7S14.637,12.415,14.637,19.878a17.278,17.278,0,0,0,4.48,13.267,6.816,6.816,0,0,1-.194,5.017l-1.953.719c-7.547,2.777-13,4.779-14.659,8.1A28.185,28.185,0,0,0,0,57.909a1.543,1.543,0,0,0,1.543,1.543H50.909a1.543,1.543,0,0,0,1.543-1.543A28.185,28.185,0,0,0,50.14,46.971C48.48,43.648,43.028,41.646,35.482,38.869Z" transform="translate(0 -7)"/>
        <path id="Path_11" data-name="Path 11" class="cls-1" d="M35.482,38.869l-1.944-.716c-.673-.41-.778-4.073-.247-4.961a17.343,17.343,0,0,0,4.523-13.313C37.814,12.415,32.939,7,26.226,7S14.637,12.415,14.637,19.878a17.278,17.278,0,0,0,4.48,13.267,6.816,6.816,0,0,1-.194,5.017l-1.953.719c-7.547,2.777-13,4.779-14.659,8.1A28.185,28.185,0,0,0,0,57.909a1.543,1.543,0,0,0,1.543,1.543H50.909a1.543,1.543,0,0,0,1.543-1.543A28.185,28.185,0,0,0,50.14,46.971C48.48,43.648,43.028,41.646,35.482,38.869Z" transform="translate(40.11 -7)"/>
      </g>
      <g id="Group_13" data-name="Group 13" transform="translate(100.086 30)">
        <path id="Path_17" data-name="Path 17" class="cls-1" d="M31.063,0H18.371A11.6,11.6,0,0,0,7.344,7.961a2.117,2.117,0,0,0,4.019,1.33A7.372,7.372,0,0,1,18.371,4.23H31.063a7.4,7.4,0,1,1,0,14.806H28.948a2.115,2.115,0,0,0-1.322.463L25.769,20.98a2.115,2.115,0,0,0-2.109-1.944H21.544a2.115,2.115,0,1,0,0,4.23v2.115a2.115,2.115,0,0,0,3.437,1.652l4.709-3.767h1.373A11.633,11.633,0,1,0,31.063,0Z" transform="translate(-7.236 0)"/>
        <ellipse id="Ellipse_13" data-name="Ellipse 13" class="cls-1" cx="2.115" cy="2.115" rx="2.115" ry="2.115" transform="translate(8.472 9.518)"/>
        <ellipse id="Ellipse_14" data-name="Ellipse 14" class="cls-1" cx="2.115" cy="2.115" rx="2.115" ry="2.115" transform="translate(15.346 9.518)"/>
        <g id="Group_28" data-name="Group 28" transform="translate(-106.086 -6.5)">
          <path id="Path_24" data-name="Path 24" class="cls-1" d="M18.477,12.39a1.246,1.246,0,0,0,1.246-1.246V6.5a1.246,1.246,0,0,0-2.493,0v4.647A1.246,1.246,0,0,0,18.477,12.39Z" transform="translate(112.165 7)"/>
          <circle id="Ellipse_19" data-name="Ellipse 19" class="cls-1" cx="1.662" cy="1.662" r="1.662" transform="translate(128.981 20.626)"/>
        </g>
      </g>
      <g id="Group_15" data-name="Group 15" transform="translate(60.284 30)">
        <path id="Path_17-2" data-name="Path 17" class="cls-1" d="M31.063,0H18.371A11.6,11.6,0,0,0,7.344,7.961a2.117,2.117,0,0,0,4.019,1.33A7.372,7.372,0,0,1,18.371,4.23H31.063a7.4,7.4,0,1,1,0,14.806H28.948a2.115,2.115,0,0,0-1.322.463L25.769,20.98a2.115,2.115,0,0,0-2.109-1.944H21.544a2.115,2.115,0,1,0,0,4.23v2.115a2.115,2.115,0,0,0,3.437,1.652l4.709-3.767h1.373A11.633,11.633,0,1,0,31.063,0Z" transform="translate(-7.236 0)"/>
        <ellipse id="Ellipse_13-2" data-name="Ellipse 13" class="cls-1" cx="2.115" cy="2.115" rx="2.115" ry="2.115" transform="translate(8.472 9.518)"/>
        <ellipse id="Ellipse_14-2" data-name="Ellipse 14" class="cls-1" cx="2.115" cy="2.115" rx="2.115" ry="2.115" transform="translate(15.346 9.518)"/>
      </g>
      <g id="Group_16" data-name="Group 16" transform="translate(81.749 34.993)">
        <ellipse id="Ellipse_18" data-name="Ellipse 18" class="cls-1" cx="1.538" cy="1.538" rx="1.538" ry="1.538" transform="translate(1.894 9.61)"/>
        <path id="Path_23" data-name="Path 23" class="cls-1" d="M12.9,7.835a1.153,1.153,0,0,0,1.153-1.153,1.127,1.127,0,1,1,1.125,1.125,1.153,1.153,0,0,0-1.153,1.153v1.953a1.153,1.153,0,0,0,2.306,0v-1A3.432,3.432,0,1,0,11.75,6.685,1.153,1.153,0,0,0,12.9,7.835Z" transform="translate(-11.75 -3.25)"/>
      </g>
    </g>
    <rect id="Rectangle_26" data-name="Rectangle 26" class="cls-2" width="100" height="100" transform="translate(44 2)"/>
  </g>
</svg>
