<svg xmlns="http://www.w3.org/2000/svg" width="100" height="100" viewBox="0 0 100 100">
  <defs>
    <style>
      .cls-1 {
        fill: #3f93c6;
      }

      .cls-2 {
        fill: none;
      }
    </style>
  </defs>
  <g id="Group_26" data-name="Group 26" transform="translate(-270 -8)">
    <g id="Group_21" data-name="Group 21" transform="translate(6 -8)">
      <g id="Group_19" data-name="Group 19" transform="translate(-1226 241)">
        <ellipse id="Ellipse_10" data-name="Ellipse 10" class="cls-1" cx="2.285" cy="2.285" rx="2.285" ry="2.285" transform="translate(1535.388 -205.717)"/>
        <ellipse id="Ellipse_11" data-name="Ellipse 11" class="cls-1" cx="2.285" cy="2.285" rx="2.285" ry="2.285" transform="translate(1542.816 -205.717)"/>
        <ellipse id="Ellipse_12" data-name="Ellipse 12" class="cls-1" cx="2.285" cy="2.285" rx="2.285" ry="2.285" transform="translate(1550.243 -205.717)"/>
        <path id="Path_17" data-name="Path 17" class="cls-1" d="M32.978,0H19.266A12.528,12.528,0,0,0,7.353,8.6a2.287,2.287,0,0,0,4.342,1.437A7.964,7.964,0,0,1,19.266,4.57H32.978a8,8,0,1,1,0,16H30.693a2.285,2.285,0,0,0-1.428.5l-2.007,1.6a2.285,2.285,0,0,0-2.278-2.1H22.694a2.285,2.285,0,1,0,0,4.57v2.285a2.285,2.285,0,0,0,3.714,1.785l5.087-4.07h1.483A12.568,12.568,0,1,0,32.978,0Z" transform="translate(1517 -216)"/>
      </g>
      <g id="Group_20" data-name="Group 20" transform="translate(-36 17)">
        <path id="Subtraction_2" data-name="Subtraction 2" class="cls-1" d="M53.281,62.67H0V50.135H.059A28.607,28.607,0,0,1,2.35,40.612c1.681-3.368,7.2-5.4,14.847-8.213l.04-.015,1.986-.731a6.917,6.917,0,0,0,.2-5.1A17.59,17.59,0,0,1,14.868,13.08C14.868,5.5,19.819,0,26.642,0S38.413,5.5,38.413,13.08A17.658,17.658,0,0,1,33.818,26.6a6.324,6.324,0,0,0-.333,2.7c.04.982.214,2.112.583,2.336l1.975.727.025.009c7.652,2.815,13.18,4.849,14.866,8.222a28.5,28.5,0,0,1,2.29,9.535h.056V62.669ZM24.175,36.747a.563.563,0,0,0-.56.482l-2.2,14.794a1.7,1.7,0,0,0,.415,1.337l3.341,3.763a1.7,1.7,0,0,0,2.538,0l3.341-3.758a1.7,1.7,0,0,0,.413-1.357l-2.194-14.78a.57.57,0,0,0-.56-.482H24.175Zm.439-6.226A1.7,1.7,0,0,0,23,32.757l.635,1.905a.565.565,0,0,0,.536.387H28.7a.565.565,0,0,0,.538-.387l.636-1.906a1.7,1.7,0,0,0-1.612-2.235Z" transform="translate(306 28)"/>
        <g id="Group_18" data-name="Group 18" transform="translate(340.996 43.466)">
          <path id="Path_10" data-name="Path 10" class="cls-1" d="M20.246,25.184l-1.109-.408c-.384-.234-.444-2.324-.141-2.831a9.9,9.9,0,0,0,2.581-7.6C21.577,10.09,18.795,7,14.964,7s-6.612,3.09-6.612,7.348a9.859,9.859,0,0,0,2.556,7.57,3.889,3.889,0,0,1-.111,2.863l-1.114.41c-4.306,1.584-7.417,2.727-8.364,4.623A16.082,16.082,0,0,0,0,36.048a.88.88,0,0,0,.88.88H29.048a.88.88,0,0,0,.88-.88,16.082,16.082,0,0,0-1.319-6.241C27.663,27.911,24.552,26.769,20.246,25.184Z" transform="translate(0 -7)"/>
          <path id="Path_11" data-name="Path 11" class="cls-1" d="M20.246,25.184l-1.109-.408c-.384-.234-.444-2.324-.141-2.831a9.9,9.9,0,0,0,2.581-7.6C21.577,10.09,18.795,7,14.964,7s-6.612,3.09-6.612,7.348a9.859,9.859,0,0,0,2.556,7.57,3.889,3.889,0,0,1-.111,2.863l-1.114.41c-4.306,1.584-7.417,2.727-8.364,4.623A16.082,16.082,0,0,0,0,36.048a.88.88,0,0,0,.88.88H29.048a.88.88,0,0,0,.88-.88,16.082,16.082,0,0,0-1.319-6.241C27.663,27.911,24.552,26.769,20.246,25.184Z" transform="translate(22.886 -7)"/>
        </g>
        <rect id="Rectangle_24" data-name="Rectangle 24" class="cls-1" width="42.321" height="19.532" transform="translate(351.576 71.134)"/>
      </g>
    </g>
    <rect id="Rectangle_27" data-name="Rectangle 27" class="cls-2" width="100" height="100" transform="translate(270 8)"/>
  </g>
</svg>
