<svg xmlns="http://www.w3.org/2000/svg" width="100" height="100" viewBox="0 0 100 100">
  <defs>
    <style>
      .cls-1, .cls-3 {
        fill: none;
      }

      .cls-2 {
        fill: #122f41;
      }

      .cls-3 {
        stroke: #122f41;
        stroke-linecap: round;
        stroke-width: 10px;
      }
    </style>
  </defs>
  <g id="Group_29" data-name="Group 29" transform="translate(-44 -2)">
    <rect id="Rectangle_26" data-name="Rectangle 26" class="cls-1" width="100" height="100" transform="translate(44 2)"/>
    <g id="Group_30" data-name="Group 30" transform="translate(0 -10.5)">
      <g id="Group_23" data-name="Group 23" transform="translate(12 -14)">
        <g id="Group_11" data-name="Group 11" transform="translate(36 49.441)">
          <path id="Path_10" data-name="Path 10" class="cls-2" d="M35.482,38.869l-1.944-.716c-.673-.41-.778-4.073-.247-4.961a17.343,17.343,0,0,0,4.523-13.313C37.814,12.415,32.939,7,26.226,7S14.637,12.415,14.637,19.878a17.278,17.278,0,0,0,4.48,13.267,6.816,6.816,0,0,1-.194,5.017l-1.953.719c-7.547,2.777-13,4.779-14.659,8.1A28.185,28.185,0,0,0,0,57.909a1.543,1.543,0,0,0,1.543,1.543H50.909a1.543,1.543,0,0,0,1.543-1.543A28.185,28.185,0,0,0,50.14,46.971C48.48,43.648,43.028,41.646,35.482,38.869Z" transform="translate(0 -7)"/>
          <path id="Path_11" data-name="Path 11" class="cls-2" d="M35.482,38.869l-1.944-.716c-.673-.41-.778-4.073-.247-4.961a17.343,17.343,0,0,0,4.523-13.313C37.814,12.415,32.939,7,26.226,7S14.637,12.415,14.637,19.878a17.278,17.278,0,0,0,4.48,13.267,6.816,6.816,0,0,1-.194,5.017l-1.953.719c-7.547,2.777-13,4.779-14.659,8.1A28.185,28.185,0,0,0,0,57.909a1.543,1.543,0,0,0,1.543,1.543H50.909a1.543,1.543,0,0,0,1.543-1.543A28.185,28.185,0,0,0,50.14,46.971C48.48,43.648,43.028,41.646,35.482,38.869Z" transform="translate(40.11 -7)"/>
        </g>
      </g>
      <line id="Line_6" data-name="Line 6" class="cls-3" y1="72" x2="72" transform="translate(58.5 26.5)"/>
    </g>
  </g>
</svg>
